<?xml version="1.0" standalone="no"?>
<!DOCTYPE svg PUBLIC "-//W3C//DTD SVG 20010904//EN"
 "http://www.w3.org/TR/2001/REC-SVG-20010904/DTD/svg10.dtd">
<svg version="1.0" xmlns="http://www.w3.org/2000/svg"
 width="200.000000pt" height="200.000000pt" viewBox="0 0 200.000000 200.000000"
 preserveAspectRatio="xMidYMid meet">
<metadata>
Created by potrace 1.14, written by Peter Selinger 2001-2017
</metadata>
<g transform="translate(0.000000,200.000000) scale(0.100000,-0.100000)"
fill="#000000" stroke="none">
<path d="M875 1946 c-177 -58 -317 -214 -354 -394 -55 -264 77 -528 312 -627
62 -26 41 0 -28 34 -121 60 -224 188 -260 326 -20 78 -19 217 1 286 70 236
260 381 481 367 143 -10 267 -82 350 -205 59 -89 84 -162 90 -265 14 -230 -95
-425 -289 -515 -54 -25 -73 -43 -47 -43 22 0 119 54 164 91 300 248 245 752
-101 916 -73 35 -87 38 -179 40 -63 2 -115 -2 -140 -11z"/>
<path d="M980 1866 c0 -32 2 -35 27 -33 24 2 29 -3 36 -33 8 -30 20 -41 80
-75 82 -46 229 -142 270 -177 37 -30 49 -99 22 -128 -22 -24 -48 -25 -84 -4
-25 15 -36 15 -136 0 -60 -9 -110 -18 -112 -20 -5 -5 34 -416 40 -422 14 -14
125 53 178 106 93 93 139 206 139 345 0 139 -46 252 -139 346 -31 31 -76 66
-99 78 -50 26 -144 51 -189 51 -31 0 -33 -2 -33 -34z"/>
<path d="M820 1849 c-154 -85 -242 -239 -242 -424 0 -148 48 -262 151 -358 49
-46 128 -93 139 -83 4 5 22 299 34 584 l3 73 -36 9 c-57 15 -89 46 -89 84 0
17 5 37 12 44 15 15 72 16 99 2 18 -10 19 -7 19 45 0 67 -9 69 -90 24z m-38
-196 c29 -25 56 -51 59 -57 7 -11 -20 -517 -28 -526 -2 -2 -21 4 -41 15 -45
24 -112 122 -138 203 -27 83 -25 208 4 294 25 72 55 118 77 118 8 0 38 -21 67
-47z"/>
<path d="M1045 1630 c-9 -15 4 -30 26 -30 25 0 25 16 0 30 -13 7 -22 7 -26 0z"/>
<path d="M1095 828 c-89 -77 -5 -242 96 -188 13 7 19 7 19 0 0 -5 7 -10 15
-10 12 0 15 13 15 60 l0 60 -40 0 c-33 0 -40 -3 -40 -20 0 -13 7 -20 20 -20
23 0 26 -10 8 -28 -18 -18 -59 -15 -74 6 -20 26 -17 86 4 105 23 21 56 22 72
2 13 -15 50 -21 50 -7 -1 13 -24 38 -47 50 -33 18 -69 14 -98 -10z"/>
<path d="M550 825 c0 -10 10 -15 30 -15 l30 0 0 -90 c0 -83 1 -90 20 -90 19 0
20 7 20 90 l0 90 30 0 c20 0 30 5 30 15 0 12 -16 15 -80 15 -64 0 -80 -3 -80
-15z"/>
<path d="M724 813 c35 -143 49 -183 66 -183 14 0 21 13 30 58 19 90 21 91 39
17 13 -56 20 -70 35 -70 16 0 24 18 46 103 l26 102 -22 0 c-19 0 -23 -9 -36
-72 l-14 -73 -14 73 c-12 64 -16 72 -36 72 -19 0 -24 -8 -33 -50 -6 -28 -11
-58 -11 -66 0 -33 -18 -2 -25 42 -9 64 -14 74 -37 74 -17 0 -19 -4 -14 -27z"/>
<path d="M983 738 c2 -96 3 -103 22 -103 19 0 20 8 23 103 l3 102 -25 0 -24 0
1 -102z"/>
<path d="M1301 747 c-36 -108 -37 -117 -11 -117 13 0 22 9 26 25 5 21 12 25
40 25 28 0 36 -5 44 -25 9 -22 50 -37 50 -18 0 4 -14 51 -32 105 -30 92 -34
98 -59 98 -26 0 -29 -6 -58 -93z m74 -9 c6 -24 4 -28 -14 -28 -22 0 -25 10
-15 48 8 27 20 19 29 -20z"/>
<path d="M560 561 c-30 -57 5 -170 46 -145 24 14 40 41 30 51 -4 4 -12 0 -17
-10 -21 -36 -49 -14 -49 38 0 52 28 74 49 38 14 -27 26 -7 13 22 -14 31 -56
34 -72 6z"/>
<path d="M660 500 c0 -47 4 -80 10 -80 6 0 10 16 10 35 0 28 4 35 20 35 20 0
22 -5 23 -47 0 -13 6 -23 13 -23 11 0 14 19 14 80 0 80 -13 106 -25 50 -5 -21
-13 -30 -26 -30 -14 0 -19 7 -19 30 0 17 -4 30 -10 30 -6 0 -10 -33 -10 -80z"/>
<path d="M770 500 l0 -80 41 0 c46 0 51 23 6 28 -37 4 -38 42 -2 42 16 0 25 6
25 15 0 9 -9 15 -25 15 -16 0 -25 6 -25 15 0 9 9 15 25 15 16 0 25 6 25 15 0
10 -11 15 -35 15 l-35 0 0 -80z"/>
<path d="M860 501 c0 -85 16 -112 22 -38 l4 42 8 -42 c11 -54 33 -57 39 -5 l4
37 1 -37 c1 -21 7 -38 12 -38 6 0 10 33 10 80 0 62 -3 80 -14 80 -9 0 -16 -17
-21 -51 -8 -59 -13 -58 -23 2 -5 30 -13 45 -25 47 -15 3 -17 -6 -17 -77z"/>
<path d="M980 500 c0 -64 3 -80 15 -80 12 0 15 16 15 80 0 64 -3 80 -15 80
-12 0 -15 -16 -15 -80z"/>
<path d="M1042 568 c-29 -37 -20 -139 13 -152 21 -8 44 3 56 26 15 27 3 35
-20 14 -11 -10 -24 -15 -30 -12 -16 10 -23 63 -11 85 13 26 29 27 46 4 19 -27
29 -7 10 22 -18 27 -47 33 -64 13z"/>
<path d="M1147 503 c-16 -82 -14 -100 7 -70 16 21 46 23 46 2 0 -8 7 -15 16
-15 11 0 14 6 9 23 -4 12 -8 29 -10 37 -31 127 -46 132 -68 23z m43 -9 c0 -8
-4 -14 -10 -14 -5 0 -10 9 -10 21 0 11 5 17 10 14 6 -3 10 -13 10 -21z"/>
<path d="M1240 500 l0 -80 35 0 c24 0 35 5 35 15 0 9 -9 15 -25 15 -24 0 -25
2 -25 65 0 37 -4 65 -10 65 -6 0 -10 -33 -10 -80z"/>
<path d="M1337 573 c-9 -9 -9 -55 1 -69 4 -6 17 -14 30 -18 13 -4 22 -15 22
-27 0 -22 -28 -26 -36 -4 -9 23 -26 18 -22 -6 8 -56 70 -48 76 10 3 26 -2 34
-27 49 -31 17 -39 36 -22 47 5 3 17 -2 26 -11 20 -20 29 -13 20 15 -4 15 -15
21 -34 21 -15 0 -31 -3 -34 -7z"/>
<path d="M583 359 c-33 -10 -33 -10 -33 -73 l0 -64 43 15 c55 19 114 13 251
-27 129 -39 197 -38 336 5 115 34 198 42 239 22 l31 -15 0 63 c0 36 -5 67 -11
71 -6 3 -39 8 -73 11 -49 3 -85 -3 -185 -31 -164 -47 -219 -47 -362 -1 -111
36 -173 42 -236 24z"/>
<path d="M578 148 c-16 -5 -29 -15 -29 -21 -7 -59 -7 -59 15 -52 66 22 155 17
282 -15 145 -37 186 -37 339 4 148 40 174 41 248 11 14 -6 17 -2 17 24 0 27
-5 34 -35 47 -50 21 -89 18 -221 -18 -159 -42 -231 -42 -385 0 -118 33 -183
38 -231 20z"/>
</g>
</svg>
